# xmcd
#
# Track frame offsets: 
#        150
#        49210
#        72901
#        97686
#        133935
#        226893
#
# Disc length: 4174 seconds
#
# Revision: 2
# Processed by: cddbd v1.5.2PL0 Copyright (c) Steve Scherf et al.
# Submitted via: ExactAudioCopy v1.0b3
#
DISCID=4a104c06
DTITLE=Sandra Brown - Hansi Jochmann - Warnschuss
DYEAR=2009
DGENRE=Hörbuch
TTITLE0=Warnschuss
TTITLE1=Warnschuss
TTITLE2=Warnschuss
TTITLE3=Warnschuss
TTITLE4=Warnschuss
TTITLE5=Warnschuss
EXTD=gelesen von Hansi Jochmann YEAR: 2009
EXTT0=
EXTT1=
EXTT2=
EXTT3=
EXTT4=
EXTT5=
PLAYORDER=
